<?xml version="1.0" standalone="no"?>
<!DOCTYPE svg PUBLIC "-//W3C//DTD SVG 20010904//EN"
 "http://www.w3.org/TR/2001/REC-SVG-20010904/DTD/svg10.dtd">
<svg version="1.0" xmlns="http://www.w3.org/2000/svg"
 width="3508.000000pt" height="2480.000000pt" viewBox="0 0 3508.000000 2480.000000"
 preserveAspectRatio="xMidYMid meet">

<g transform="translate(0.000000,2480.000000) scale(0.100000,-0.100000)"
fill="#000000" stroke="none">
<path d="M17390 21871 c-95 -21 -173 -50 -240 -88 -78 -45 -3172 -2153 -3239
-2207 -125 -101 -227 -255 -273 -416 -22 -74 -22 -89 -26 -965 -2 -559 1 -918
7 -965 23 -173 78 -282 213 -425 158 -167 165 -171 898 -522 365 -175 1659
-800 2875 -1389 l2210 -1072 0 -327 0 -328 -845 -579 c-465 -318 -976 -669
-1137 -779 l-291 -199 -1144 778 -1143 778 -5 659 c-6 650 -6 661 -28 735 -60
197 -197 370 -381 481 -201 121 -490 143 -711 53 -232 -94 -424 -309 -493
-553 l-22 -76 -3 -3255 c-2 -2303 0 -3279 8 -3339 24 -184 85 -311 214 -448
100 -106 198 -171 324 -214 95 -33 100 -34 272 -34 172 0 176 0 270 33 125 43
215 98 307 186 117 110 180 214 230 373 l28 88 5 1677 5 1677 930 -639 c512
-352 957 -653 990 -669 110 -55 205 -75 345 -75 146 0 245 23 359 83 38 20
790 528 1671 1130 1204 824 1618 1111 1667 1160 76 76 153 187 183 267 49 132
51 184 48 1129 l-4 880 -22 75 c-59 190 -178 345 -362 470 -34 23 -353 183
-708 354 -722 350 -3206 1558 -4356 2120 -412 201 -753 366 -758 366 -4 0 -8
143 -8 318 l0 318 1138 774 c625 425 1144 774 1153 774 8 1 524 -348 1147
-774 l1132 -775 0 -635 c0 -682 2 -702 53 -830 42 -104 89 -172 178 -260 100
-99 193 -158 323 -203 88 -31 96 -32 261 -32 184 0 253 13 370 72 197 99 373
306 437 513 l22 75 4 904 c2 776 1 916 -13 992 -18 106 -53 197 -107 282 -93
143 -89 141 -1786 1300 -1068 730 -1620 1101 -1675 1127 -174 82 -341 106
-497 71z m351 -37 c46 -15 119 -44 162 -66 43 -21 785 -522 1650 -1112 1436
-981 1580 -1082 1668 -1168 83 -82 103 -107 143 -189 86 -176 81 -102 81
-1159 l0 -935 -23 -75 c-32 -99 -69 -171 -130 -250 -178 -229 -376 -330 -649
-330 -242 0 -414 70 -584 240 -86 86 -145 179 -186 295 l-28 80 -3 670 -3 670
-1145 785 c-631 432 -1151 784 -1157 782 -6 -2 -528 -355 -1159 -785 l-1148
-781 0 -326 0 -326 663 -324 c1360 -664 3785 -1844 4442 -2161 374 -181 703
-345 731 -364 194 -128 324 -308 364 -507 19 -88 20 -143 20 -943 0 -977 0
-977 -75 -1130 -48 -99 -127 -198 -215 -268 -116 -93 -3228 -2211 -3295 -2243
-115 -53 -185 -68 -325 -68 -141 0 -210 15 -325 69 -39 18 -494 324 -1015 682
l-945 650 -5 -1691 -5 -1691 -22 -78 c-70 -246 -259 -456 -491 -546 -112 -43
-193 -54 -346 -49 -225 9 -358 68 -521 232 -113 113 -168 205 -208 343 l-22
78 -3 3255 c-2 2249 1 3280 8 3336 23 176 94 319 224 449 167 167 343 244 558
245 351 1 653 -216 770 -550 l33 -95 3 -665 4 -665 1140 -775 c627 -426 1147
-779 1157 -783 14 -7 268 162 1162 776 l1144 784 3 335 c2 261 -1 338 -10 345
-17 13 -4235 2056 -5083 2462 -357 172 -675 328 -705 348 -30 19 -107 88 -170
152 -92 93 -124 132 -157 196 -83 160 -78 93 -78 1135 0 862 1 930 18 1003 36
150 143 322 263 422 66 54 3175 2170 3250 2211 185 103 389 127 575 68z"/>
</g>
</svg>
