<?xml version="1.0" encoding="utf-8"?>
<!-- Uploaded to: SVG Repo, www.svgrepo.com, Generator: SVG Repo Mixer Tools -->
<svg width="800px" height="800px" viewBox="0 0 1024 1024" class="icon"  version="1.1" xmlns="http://www.w3.org/2000/svg"><path d="M67 895.9h890v64H67z" fill="#536DFE" /><path d="M768 63.9h192v895.9H768zM64 191.8h192V960H64zM448 448.2h192V960H448z" fill="#3D5AFE" /><path d="M400.4 650c-68.8 0-126.3-18.3-171.8-54.8-116.5-93.6-105.9-269.9-105.4-277.4l63.9 4.4-31.9-2.2 31.9 2.1c-0.1 1.5-8.6 151 81.8 223.4 54.1 43.3 134.8 52 240 25.8-16-115.6 5.5-210.2 63.9-281.6 103.3-126.2 283.1-130.2 290.7-130.3l0.9 64c-0.3 0-40.8 0.9-91.3 15.1-45 12.7-107.7 38.9-151.1 92.1-50.6 62-65.9 148.9-45.5 258.2 3 16.1-6.7 31.9-22.4 36.6-56.2 16.4-107.5 24.6-153.7 24.6z" fill="#8C9EFF" /><path d="M160 321.9m-64 0a64 64 0 1 0 128 0 64 64 0 1 0-128 0Z" fill="#FFEA00" /><path d="M544 577.6m-64 0a64 64 0 1 0 128 0 64 64 0 1 0-128 0Z" fill="#FFEA00" /><path d="M864 191.4m-64 0a64 64 0 1 0 128 0 64 64 0 1 0-128 0Z" fill="#FFEA00" /></svg>