<svg xmlns="http://www.w3.org/2000/svg" xmlns:xlink="http://www.w3.org/1999/xlink" xmlns:inkscape="http://www.inkscape.org/namespaces/inkscape" version="1.1" width="841.89" height="595.276" viewBox="0 0 841.89 595.276">
<defs>
<clipPath id="clip_0">
<path transform="matrix(1,0,0,-1,0,595.276)" d="M0 595.276H841.89V0H0Z"/>
</clipPath>
<clipPath id="clip_1">
<path transform="matrix(1,0,0,-1,0,595.276)" d="M327.148 172.473H514.769V524.901H327.148Z"/>
</clipPath>
</defs>
<g>
<g inkscape:groupmode="layer" inkscape:label="Warstwa 1">
<path transform="matrix(1,0,0,-1,0,595.276)" d="M0 0H841.89V595.275H0Z" fill="#231f20"/>
<g clip-path="url(#clip_0)">
<g>
<g clip-path="url(#clip_1)">
<path transform="matrix(1,0,0,-1,514.769,251.4302)" d="M0 0V-37.736C0-39.461-.332-41.185-.663-42.909-1.724-46.756-4.51-50.536-8.622-53.322L-83.1-104.19C-86.548-106.644-90.329-107.638-93.777-107.638-97.292-107.638-101.073-106.644-104.521-104.19L-148.823-73.749V-152.007C-148.823-162.684-157.511-171.372-168.255-171.372-173.76-171.372-178.27-169.648-182.05-165.802-185.897-162.021-187.621-157.511-187.621-152.007V0C-187.621 5.173-185.897 9.683-182.05 13.529-178.27 17.31-173.76 19.366-168.587 19.366-165.802 19.366-163.281 18.835-161.026 17.84-158.705 16.912-156.649 15.453-154.726 13.529-150.946 9.683-149.221 5.173-149.221 0V-28.054L-93.777-65.79-38.731-28.054V-11.739 30.839L-10.744 17.31C-3.78 13.132 0 7.627 0 0" fill="#f9ee33"/>
<path transform="matrix(1,0,0,-1,514.769,140.6748)" d="M0 0V-38.4C0-42.909-1.393-47.088-4.841-50.536-4.841-51.2-5.505-51.531-5.903-51.929-9.683-55.709-14.193-57.434-19.366-57.434-22.151-57.434-24.605-56.969-26.794-56.107-29.048-55.179-31.104-53.786-33.227-51.929-37.007-48.082-38.731-43.573-38.731-38.4V-10.346L-93.777 27.39-149.221-10.346V-26.263H-148.823L-109.031-45.695-38.731-79.916V-122.494L-145.706-70.631-149.487-68.841-176.877-55.709C-179.331-53.985-181.387-52.261-182.78-50.536-186.228-47.088-187.621-43.241-187.621-38.4V0C-187.621 6.632-184.836 11.805-179.331 15.917L-104.521 66.851C-101.404 68.907-97.624 70.3-93.777 70.3-90.329 70.3-86.548 68.907-83.1 66.851L-8.622 15.917C-2.785 11.805 0 6.632 0 0" fill="#ffffff"/>
</g>
</g>
<path transform="matrix(1,0,0,-1,211.359,518.6808)" d="M0 0 2.627 5.511C6.317 2.19 12.634-.212 19.021-.212 27.609-.212 31.299 3.109 31.299 7.421 31.299 19.506 1.207 11.873 1.207 30.248 1.207 37.88 7.169 44.382 20.228 44.382 26.047 44.382 32.08 42.827 36.196 40L33.855 34.345C29.525 37.102 24.628 38.374 20.228 38.374 11.782 38.374 8.162 34.841 8.162 30.53 8.162 18.445 38.255 26.007 38.255 7.844 38.255 .282 32.151-6.219 19.021-6.219 11.427-6.219 3.974-3.676 0 0" fill="#ffffff"/>
<path transform="matrix(1,0,0,-1,294.0434,486.87843)" d="M0 0V-37.457H-6.46V-31.802C-9.227-35.69-13.911-37.88-19.234-37.88-28.958-37.88-35.416-32.581-35.416-21.555V0H-28.603V-20.778C-28.603-28.128-24.913-31.802-18.453-31.802-11.357-31.802-6.814-27.421-6.814-19.364V0Z" fill="#ffffff"/>
<path transform="matrix(1,0,0,-1,302.276,520.37686)" d="M0 0 2.838 5.37C6.033 3.109 11.142 1.484 16.04 1.484 22.355 1.484 24.982 3.392 24.982 6.572 24.982 14.983 1.207 7.703 1.207 22.615 1.207 29.328 7.239 33.851 16.89 33.851 21.789 33.851 27.324 32.579 30.589 30.459L27.679 25.088C24.273 27.279 20.51 28.056 16.82 28.056 10.858 28.056 7.949 25.866 7.949 22.898 7.949 14.063 31.796 21.272 31.796 6.713 31.796-.071 25.55-4.382 15.543-4.382 9.296-4.382 3.122-2.474 0 0" fill="#ffffff"/>
<path transform="matrix(1,0,0,-1,378.2882,502.7804)" d="M0 0V-21.555H-6.813V-.777C-6.813 6.574-10.503 10.177-16.963 10.177-24.202 10.177-28.885 5.866-28.885-2.261V-21.555H-35.7V30.885H-28.885V10.601C-26.047 14.206-21.362 16.255-15.613 16.255-6.458 16.255 0 11.026 0 0" fill="#ffffff"/>
<path transform="matrix(1,0,0,-1,405.5435,506.8783)" d="M0 0-7.807-7.209V-17.457H-14.622V34.982H-7.807V1.341L12.705 20H20.938L5.109 4.523 22.499-17.457H14.123Z" fill="#ffffff"/>
<path transform="matrix(1,0,0,-1,461.8263,505.60749)" d="M0 0C0 7.987-5.394 13.145-12.632 13.145-19.871 13.145-25.336 7.987-25.336 0-25.336-7.986-19.871-13.214-12.632-13.214-5.394-13.214 0-7.986 0 0M-32.221 0C-32.221 11.167-23.918 19.082-12.632 19.082-1.348 19.082 6.885 11.167 6.885 0 6.885-11.166-1.348-19.151-12.632-19.151-23.918-19.151-32.221-11.166-32.221 0" fill="#ffffff"/>
<path transform="matrix(1,0,0,-1,510.373,486.87843)" d="M0 0-16.465-37.457H-23.421L-39.886 0H-32.789L-19.871-30.036-6.671 0Z" fill="#ffffff"/>
<path transform="matrix(1,0,0,-1,550.7578,492.109)" d="M0 0C0 7.068-4.756 11.095-13.84 11.095H-25.906V-11.095H-13.84C-4.756-11.095 0-7.066 0 0M7.097 0C7.097-10.742-.711-17.243-13.627-17.243H-25.906V-32.226H-33.003V17.245H-13.627C-.711 17.245 7.097 10.742 7.097 0" fill="#f9ee33"/>
<path transform="matrix(1,0,0,-1,586.881,486.5254)" d="M0 0V-6.572C-.568-6.501-1.064-6.501-1.561-6.501-8.871-6.501-13.413-10.954-13.413-19.153V-37.81H-20.228V-.353H-13.697V-6.643C-11.284-2.261-6.601 0 0 0" fill="#f9ee33"/>
<path transform="matrix(1,0,0,-1,623.6461,505.60749)" d="M0 0C0 7.987-5.394 13.145-12.632 13.145-19.871 13.145-25.336 7.987-25.336 0-25.336-7.986-19.871-13.214-12.632-13.214-5.394-13.214 0-7.986 0 0M-32.221 0C-32.221 11.167-23.918 19.082-12.632 19.082-1.348 19.082 6.885 11.167 6.885 0 6.885-11.166-1.348-19.151-12.632-19.151-23.918-19.151-32.221-11.166-32.221 0" fill="#f9ee33"/>
</g>
</g>
</g>
</svg>
